<svg id="Layer_1" data-name="Layer 1" xmlns="http://www.w3.org/2000/svg" viewBox="0 0 90.78 81"><title>file_icon</title><path d="M88.8,29.79H11.49a1.51,1.51,0,0,1-1.5-1.4L9,14.86a4.07,4.07,0,0,1,4.06-4.36H47.43a4.08,4.08,0,0,1,4.07,4.07,1.07,1.07,0,0,0,1.07,1.07H86.89A4.08,4.08,0,0,1,91,20L90.3,28.4A1.51,1.51,0,0,1,88.8,29.79Zm-75.91-3H87.42l.54-7a1.08,1.08,0,0,0-1.07-1.16H52.57a4.07,4.07,0,0,1-4.07-4.07,1.07,1.07,0,0,0-1.07-1.07H13.09A1.06,1.06,0,0,0,12,14.65Z" transform="translate(-4.61 -10.5)"/><path d="M87.28,91.5H12.72a4.09,4.09,0,0,1-4.06-3.78l-4-56.57a4.06,4.06,0,0,1,4.06-4.36H91.32a4.06,4.06,0,0,1,4.06,4.36l-4,56.57A4.08,4.08,0,0,1,87.28,91.5ZM8.68,29.79a1.08,1.08,0,0,0-1.07,1.14l4,56.57a1.08,1.08,0,0,0,1.07,1H87.28a1.08,1.08,0,0,0,1.07-1l4-56.57a1.08,1.08,0,0,0-1.07-1.14Z" transform="translate(-4.61 -10.5)"/></svg>