<svg id="Layer_4" data-name="Layer 4" xmlns="http://www.w3.org/2000/svg" viewBox="0 0 436.6 436.89"><defs><style>.cls-1,.cls-2{fill:#fff;}.cls-1{stroke:#727273;}.cls-1,.cls-2,.cls-3,.cls-4{stroke-miterlimit:10;}.cls-1,.cls-2,.cls-3{stroke-width:12px;}.cls-2,.cls-3,.cls-4{stroke:#2078f5;}.cls-3,.cls-4{fill:none;}.cls-3{stroke-linecap:round;}.cls-4{stroke-width:2px;}.cls-5{fill:#727273;}.cls-6{fill:#2078f5;}</style></defs><title>files</title><rect class="cls-1" x="206.61" y="90.47" width="185.25" height="156.38" rx="8.97" ry="8.97"/><path class="cls-1" d="M430.33,297.25H261.53A8.24,8.24,0,0,1,253.3,289V166.55a8.23,8.23,0,0,1,8.23-8.23h97.26a8.23,8.23,0,0,0,7.09-4l5.5-9.35a8.23,8.23,0,0,1,7.09-4.06h51.86a8.23,8.23,0,0,1,8.22,8.23V289A8.23,8.23,0,0,1,430.33,297.25Z" transform="translate(-46.69 -50.4)"/><rect class="cls-1" x="142.11" y="185.2" width="163.84" height="156.34" rx="11.7" ry="11.7"/><rect class="cls-2" x="127.97" y="67.42" width="131.39" height="169.99" rx="15.07" ry="15.07"/><line class="cls-3" x1="149.17" y1="99.43" x2="235.77" y2="99.43"/><line class="cls-3" x1="149.17" y1="130.05" x2="235.77" y2="130.05"/><line class="cls-3" x1="149.17" y1="163.37" x2="235.77" y2="163.37"/><path class="cls-1" d="M333.86,391.93H190.27a10.11,10.11,0,0,1-8.61-4.79c-5.37-8.64-10.64-17.35-16.79-25.45L94.51,269c-4.23-5.56-.75-13.84,6.22-14.31.23,0,.46,0,.7,0h66.45a10.13,10.13,0,0,0,9.66-7.09l1.53-4.87a10.13,10.13,0,0,1,9.65-7.08H245a10.12,10.12,0,0,1,9,5.47c3.53,6.8,7,13.64,10.32,20.06L348.86,387.2C349.73,392.79,339.45,391.93,333.86,391.93Z" transform="translate(-46.69 -50.4)"/><rect class="cls-1" x="6" y="241.22" width="185.25" height="156.38" rx="8.97" ry="8.97"/><path class="cls-1" d="M229.71,448H60.92a8.23,8.23,0,0,1-8.23-8.23V317.3a8.24,8.24,0,0,1,8.23-8.23h97.25a8.21,8.21,0,0,0,7.09-4.05l5.51-9.35a8.21,8.21,0,0,1,7.09-4.05h51.85a8.22,8.22,0,0,1,8.23,8.22V439.77A8.22,8.22,0,0,1,229.71,448Z" transform="translate(-46.69 -50.4)"/><path class="cls-4" d="M107.92,94.38h0A22,22,0,0,0,91.08,77.54h0a21.92,21.92,0,0,0,16.84-16.83h0a21.92,21.92,0,0,0,16.84,16.83h0A22,22,0,0,0,107.92,94.38Z" transform="translate(-46.69 -50.4)"/><path class="cls-5" d="M450.15,355.56h0a13.43,13.43,0,0,0,10.31,10.31h0a13.44,13.44,0,0,0-10.31,10.32h0a13.44,13.44,0,0,0-10.31-10.32h0A13.43,13.43,0,0,0,450.15,355.56Z" transform="translate(-46.69 -50.4)"/><path class="cls-5" d="M72.66,163.85h0A13.44,13.44,0,0,0,83,174.17h0a13.43,13.43,0,0,0-10.31,10.31h0a13.43,13.43,0,0,0-10.31-10.31h0A13.44,13.44,0,0,0,72.66,163.85Z" transform="translate(-46.69 -50.4)"/><path class="cls-5" d="M143.56,50.4h0a13.43,13.43,0,0,0,10.31,10.31h0A13.42,13.42,0,0,0,143.56,71h0a13.43,13.43,0,0,0-10.32-10.31h0A13.44,13.44,0,0,0,143.56,50.4Z" transform="translate(-46.69 -50.4)"/><path class="cls-6" d="M471.88,419.84h0a14.85,14.85,0,0,0,11.41,11.41h0a14.87,14.87,0,0,0-11.41,11.42h0a14.88,14.88,0,0,0-11.42-11.42h0A14.86,14.86,0,0,0,471.88,419.84Z" transform="translate(-46.69 -50.4)"/><path class="cls-6" d="M343.53,455.23h0a20.87,20.87,0,0,0,16,16h0a20.9,20.9,0,0,0-16,16h0a20.87,20.87,0,0,0-16-16h0A20.85,20.85,0,0,0,343.53,455.23Z" transform="translate(-46.69 -50.4)"/></svg>