<svg id="Layer_3" data-name="Layer 3" xmlns="http://www.w3.org/2000/svg" viewBox="0 0 94.11 95.02"><title>message_icon</title><path d="M47.47,4.24A43,43,0,0,1,84.36,69.35a3,3,0,0,0-.27,2.52l7,20.45L64.82,87.14a2.78,2.78,0,0,0-.58-.06,2.93,2.93,0,0,0-1.09.21A43,43,0,1,1,47.47,4.24m0-3A46,46,0,1,0,64.24,90.08l31.34,6.19L86.93,70.9A46,46,0,0,0,47.47,1.24Z" transform="translate(-1.47 -1.24)"/><circle cx="32.05" cy="47.51" r="4"/><circle cx="47.05" cy="47.51" r="4"/><circle cx="62.05" cy="47.51" r="4"/></svg>