<svg id="Layer_1" data-name="Layer 1" xmlns="http://www.w3.org/2000/svg" viewBox="0 0 101 101"><title>mic</title><style>.cls-1{fill:#2077f4}</style><path class="cls-1" d="M50,64.45A11.16,11.16,0,0,0,61.14,53.31V30.14a11.14,11.14,0,0,0-22.28,0V53.31A11.16,11.16,0,0,0,50,64.45Z" transform="translate(0.5 0.5)"/><path class="cls-1" d="M50-.5A50.5,50.5,0,1,0,100.5,50,50.5,50.5,0,0,0,50-.5ZM36.86,30.14a13.14,13.14,0,0,1,26.28,0V53.31a13.14,13.14,0,0,1-26.28,0ZM62.14,81a1,1,0,0,1,0,2H37.86a1,1,0,0,1,0-2H49V71.36a18.07,18.07,0,0,1-17.07-18,1,1,0,0,1,2,0,16.07,16.07,0,1,0,32.14,0,1,1,0,0,1,2,0A18.07,18.07,0,0,1,51,71.36V81Z" transform="translate(0.5 0.5)"/></svg>
