<svg id="Layer_2" data-name="Layer 2" xmlns="http://www.w3.org/2000/svg" viewBox="0 0 85.64 86.41"><title>phone</title><style>.cls-1{fill:#fff}</style><path class="cls-1" d="M59.67,91.14A10.56,10.56,0,0,0,64,92.66h0l4.86.36A25.63,25.63,0,0,0,89,85.72l1.92-1.93a7.66,7.66,0,0,0-.56-11l-5.67-5.13a7.62,7.62,0,0,0-10.56-.09L66,75.67a3.52,3.52,0,0,1-5-.15L26.32,40.85A5.58,5.58,0,0,1,26.08,33l7.41-7.42A7.62,7.62,0,0,0,33.4,15L28.27,9.31a7.67,7.67,0,0,0-11-.56l-1.93,1.93A27.83,27.83,0,0,0,7.39,32.51l.28,3.84,0,.1A10.61,10.61,0,0,0,9.1,40.6l1.52,2.57a121.43,121.43,0,0,0,17.65,23l3.27,3.34A121.13,121.13,0,0,0,54.7,88.09Z" transform="translate(-7.31 -6.68)"/></svg>
