<svg id="Layer_2" data-name="Layer 2" xmlns="http://www.w3.org/2000/svg" viewBox="0 0 129.49 68.21"><defs><style>.cls-1{fill:none;stroke:#fff;stroke-linejoin:round;stroke-width:5px;}</style></defs><title>team_icon</title><circle class="cls-1" cx="42.99" cy="24.65" r="13.76"/><path class="cls-1" d="M28.87,84c0-16.46,9.23-29.8,20.63-29.8S70.13,67.54,70.13,84" transform="translate(-6.51 -15.79)"/><path d="M30.88,43.12a11.21,11.21,0,0,1-2,.18,12,12,0,1,1,9.69-19.13,19.65,19.65,0,0,1,2.95-1.79A15.46,15.46,0,1,0,21.7,45C12.88,49.19,6.51,61,6.51,74.83H10c0-15.49,8.49-28.09,18.92-28.09a12.61,12.61,0,0,1,3.13.4A19.28,19.28,0,0,1,30.88,43.12Z" transform="translate(-6.51 -15.79)"/><path d="M69.12,43.12a11.21,11.21,0,0,0,2,.18,12,12,0,1,0-9.69-19.13,19.65,19.65,0,0,0-2.95-1.79A15.46,15.46,0,1,1,78.3,45c8.82,4.22,15.19,16,15.19,29.86H90.05c0-15.49-8.49-28.09-18.92-28.09a12.61,12.61,0,0,0-3.13.4A19.28,19.28,0,0,0,69.12,43.12Z" transform="translate(-6.51 -15.79)"/><path d="M57.16,54.14a15.48,15.48,0,1,0-14.32,0C34,58.37,27.65,70.15,27.65,84h3.44c0-15.49,8.48-28.09,18.91-28.09S68.91,68.51,68.91,84h3.44C72.35,70.15,66,58.37,57.16,54.14ZM38,40.44a12,12,0,1,1,12,12A12.05,12.05,0,0,1,38,40.44Z" transform="translate(-6.51 -15.79)"/><path d="M134,51h0Z" transform="translate(-6.51 -15.79)"/></svg>