<svg id="Layer_2" data-name="Layer 2" xmlns="http://www.w3.org/2000/svg" viewBox="0 0 428.7 376.34"><defs><style>.cls-1{fill:#727273;}.cls-2{fill:#2078f5;}.cls-3{fill:#fff;}.cls-4{fill:none;stroke:#2078f5;stroke-miterlimit:10;stroke-width:2px;}</style></defs><title>team</title><path class="cls-1" d="M434.73,335.78h-15a22.29,22.29,0,0,1-22.26-22.27V196.29A22.28,22.28,0,0,1,419.74,174h15A22.29,22.29,0,0,1,457,196.29V313.51A22.29,22.29,0,0,1,434.73,335.78Zm-15-150.33a10.85,10.85,0,0,0-10.84,10.84V313.51a10.86,10.86,0,0,0,10.84,10.85h15a10.87,10.87,0,0,0,10.85-10.85V196.29a10.86,10.86,0,0,0-10.85-10.84Z" transform="translate(-28.3 -91.19)"/><path class="cls-1" d="M392.43,319.6h-11.6a16.49,16.49,0,0,1-16.47-16.47V206.67a16.49,16.49,0,0,1,16.47-16.46h11.6a16.49,16.49,0,0,1,16.47,16.46v96.46A16.49,16.49,0,0,1,392.43,319.6Zm-11.6-118a5.05,5.05,0,0,0-5,5v96.46a5,5,0,0,0,5,5h11.6a5.05,5.05,0,0,0,5.05-5V206.67a5.06,5.06,0,0,0-5.05-5Z" transform="translate(-28.3 -91.19)"/><path class="cls-1" d="M352.85,311.27h-96A22.29,22.29,0,0,1,234.61,289V221.36a22.29,22.29,0,0,1,22.26-22.27h96a22.29,22.29,0,0,1,22.26,22.27V289A22.29,22.29,0,0,1,352.85,311.27Zm-96-100.76A10.86,10.86,0,0,0,246,221.36V289a10.86,10.86,0,0,0,10.84,10.85h96A10.86,10.86,0,0,0,363.69,289V221.36a10.86,10.86,0,0,0-10.84-10.85Z" transform="translate(-28.3 -91.19)"/><path class="cls-2" d="M65.55,335.78h-15A22.29,22.29,0,0,1,28.3,313.51V196.29A22.29,22.29,0,0,1,50.56,174h15a22.29,22.29,0,0,1,22.27,22.26V313.51A22.29,22.29,0,0,1,65.55,335.78Zm-15-150.33a10.85,10.85,0,0,0-10.84,10.84V313.51a10.86,10.86,0,0,0,10.84,10.85h15A10.87,10.87,0,0,0,76.4,313.51V196.29a10.86,10.86,0,0,0-10.85-10.84Z" transform="translate(-28.3 -91.19)"/><path class="cls-2" d="M104.47,319.6H92.86A16.48,16.48,0,0,1,76.4,303.13V206.67a16.48,16.48,0,0,1,16.46-16.46h11.61a16.48,16.48,0,0,1,16.46,16.46v96.46A16.48,16.48,0,0,1,104.47,319.6Zm-11.61-118a5.05,5.05,0,0,0-5,5v96.46a5,5,0,0,0,5,5h11.61a5,5,0,0,0,5-5V206.67a5.05,5.05,0,0,0-5-5Z" transform="translate(-28.3 -91.19)"/><path class="cls-3" d="M131.78,204.8a16.55,16.55,0,0,0-16.56,16.56v67.09A16.56,16.56,0,0,0,131.78,305h28.77a16.59,16.59,0,0,1,11.71,4.84l34.42,36.83A16.55,16.55,0,0,0,223,350.87l88.14-25.71a16.56,16.56,0,0,0,7.9-26.71l-76-89.82a10.73,10.73,0,0,0-8.14-3.73Z" transform="translate(-28.3 -91.19)"/><path class="cls-2" d="M218.38,357.24a22.24,22.24,0,0,1-15.74-6.52l-.14-.14-34.34-36.75a10.77,10.77,0,0,0-7.61-3.11H131.78a22.29,22.29,0,0,1-22.27-22.27V221.36a22.29,22.29,0,0,1,22.27-22.27l103.12.09a16.48,16.48,0,0,1,12.46,5.72l76.06,89.86a22.26,22.26,0,0,1-10.66,35.88l-88.14,25.71A22.3,22.3,0,0,1,218.38,357.24Zm-7.6-14.54a10.83,10.83,0,0,0,10.64,2.68l88.14-25.71a10.83,10.83,0,0,0,5.17-17.49l-76.05-89.86a5,5,0,0,0-3.79-1.71l-103.12-.1a10.87,10.87,0,0,0-10.84,10.85v67.09a10.86,10.86,0,0,0,10.85,10.84h28.77a22.16,22.16,0,0,1,15.75,6.52l.13.14Z" transform="translate(-28.3 -91.19)"/><path class="cls-3" d="M274.61,230.22l-49,49a12.17,12.17,0,0,1-17.22,0L205,275.78a17,17,0,0,1,0-24.11l29.17-35.15a32.58,32.58,0,0,1,25.06-11.76l93.67,0" transform="translate(-28.3 -91.19)"/><path class="cls-1" d="M217,288.49a17.83,17.83,0,0,1-12.65-5.23l-3.44-3.44a22.78,22.78,0,0,1-.2-32l29-35a38.17,38.17,0,0,1,29.44-13.82h0l93.67,0a5.71,5.71,0,1,1,0,11.42h0l-93.67,0h0a26.79,26.79,0,0,0-20.65,9.7L209,255.71a11.35,11.35,0,0,0,0,16l3.44,3.44a6.48,6.48,0,0,0,9.15,0l49-49a5.71,5.71,0,1,1,8.07,8.08l-49,49A17.81,17.81,0,0,1,217,288.49Z" transform="translate(-28.3 -91.19)"/><rect class="cls-3" x="152.61" y="308.97" width="67.65" height="28.06" rx="4.16" ry="4.16" transform="translate(254.71 -128.42) rotate(45)"/><path class="cls-1" d="M200.44,359.26a13.63,13.63,0,0,1-9.65-4h0l-36.62-36.62a13.65,13.65,0,0,1,0-19.29l8.63-8.63a13.63,13.63,0,0,1,19.29,0l36.62,36.62a13.65,13.65,0,0,1,0,19.29l-8.63,8.63A13.59,13.59,0,0,1,200.44,359.26Zm-1.57-12.06a2.23,2.23,0,0,0,3.14,0l8.63-8.63a2.22,2.22,0,0,0,0-3.14L174,298.81a2.21,2.21,0,0,0-3.13,0l-8.63,8.63a2.2,2.2,0,0,0,0,3.13l36.62,36.63Z" transform="translate(-28.3 -91.19)"/><rect class="cls-2" x="64.97" y="119.12" width="10.79" height="10.79" rx="1.69" ry="1.69"/><rect class="cls-1" x="352.94" y="119.12" width="10.79" height="10.79" rx="1.69" ry="1.69"/><path class="cls-4" d="M401.06,129.62h0a21.93,21.93,0,0,0-16.83-16.83h0A21.94,21.94,0,0,0,401.06,96h0a21.94,21.94,0,0,0,16.84,16.84h0A21.92,21.92,0,0,0,401.06,129.62Z" transform="translate(-28.3 -91.19)"/><path class="cls-1" d="M317.39,176.41h0A14.86,14.86,0,0,0,306,165h0a14.88,14.88,0,0,0,11.42-11.42h0A14.87,14.87,0,0,0,328.8,165h0A14.85,14.85,0,0,0,317.39,176.41Z" transform="translate(-28.3 -91.19)"/><path class="cls-2" d="M417.9,152.42h0a14.71,14.71,0,0,0-11.3-11.3h0a14.73,14.73,0,0,0,11.3-11.31h0a14.72,14.72,0,0,0,11.3,11.31h0A14.69,14.69,0,0,0,417.9,152.42Z" transform="translate(-28.3 -91.19)"/><path class="cls-1" d="M137.77,446.91h0a13.45,13.45,0,0,0,10.31,10.31h0a13.43,13.43,0,0,0-10.31,10.31h0a13.43,13.43,0,0,0-10.31-10.31h0A13.45,13.45,0,0,0,137.77,446.91Z" transform="translate(-28.3 -91.19)"/><path class="cls-1" d="M78.68,133h0A13.44,13.44,0,0,0,89,143.27h0a13.43,13.43,0,0,0-10.32,10.31h0a13.42,13.42,0,0,0-10.31-10.31h0A13.43,13.43,0,0,0,78.68,133Z" transform="translate(-28.3 -91.19)"/><path class="cls-2" d="M306,351.53h0A14.88,14.88,0,0,0,317.39,363h0A14.86,14.86,0,0,0,306,374.36h0A14.85,14.85,0,0,0,294.56,363h0A14.87,14.87,0,0,0,306,351.53Z" transform="translate(-28.3 -91.19)"/><path class="cls-4" d="M47.33,370.68h0A14.72,14.72,0,0,0,58.63,382h0a14.73,14.73,0,0,0-11.3,11.3h0A14.73,14.73,0,0,0,36,382h0A14.72,14.72,0,0,0,47.33,370.68Z" transform="translate(-28.3 -91.19)"/></svg>