<svg id="Layer_5" data-name="Layer 5" xmlns="http://www.w3.org/2000/svg" viewBox="0 0 451.95 469.73"><defs><style>.cls-1{fill:#727273;}.cls-2{fill:none;stroke:#2078f5;stroke-miterlimit:10;stroke-width:2px;}.cls-3{fill:#2078f5;}</style></defs><title>welcome</title><path class="cls-1" d="M449.56,90.29h0a13.44,13.44,0,0,0-10.3,10.33h0a13.43,13.43,0,0,0-10.33-10.29h0A13.43,13.43,0,0,0,439.23,80h0A13.42,13.42,0,0,0,449.56,90.29Z" transform="translate(-19.65 -5.23)"/><path class="cls-2" d="M444,425.34h0A14.86,14.86,0,0,0,455.44,414h0a14.88,14.88,0,0,0,11.39,11.44h0a14.88,14.88,0,0,0-11.44,11.39h0A14.86,14.86,0,0,0,444,425.34Z" transform="translate(-19.65 -5.23)"/><path class="cls-3" d="M139.17,42.68h0a20.86,20.86,0,0,0,16,16h0a20.88,20.88,0,0,0-16,16h0a20.9,20.9,0,0,0-16-16h0A20.87,20.87,0,0,0,139.17,42.68Z" transform="translate(-19.65 -5.23)"/><path class="cls-2" d="M65.22,65.25h0A21.92,21.92,0,0,0,48.39,48.41h0A21.92,21.92,0,0,0,65.22,31.57h0A21.92,21.92,0,0,0,82.06,48.41h0A21.92,21.92,0,0,0,65.22,65.25Z" transform="translate(-19.65 -5.23)"/><path class="cls-1" d="M30,134.72h0A13.45,13.45,0,0,0,40.27,145h0A13.45,13.45,0,0,0,30,155.34h0A13.43,13.43,0,0,0,19.65,145h0A13.43,13.43,0,0,0,30,134.72Z" transform="translate(-19.65 -5.23)"/><path class="cls-1" d="M100.86,21.26h0a13.42,13.42,0,0,0,10.31,10.31h0a13.43,13.43,0,0,0-10.31,10.31h0A13.45,13.45,0,0,0,90.55,31.57h0A13.43,13.43,0,0,0,100.86,21.26Z" transform="translate(-19.65 -5.23)"/><path class="cls-3" d="M360.48,452.13h0a14.86,14.86,0,0,0,11.41,11.41h0A14.87,14.87,0,0,0,360.48,475h0a14.88,14.88,0,0,0-11.42-11.42h0A14.87,14.87,0,0,0,360.48,452.13Z" transform="translate(-19.65 -5.23)"/><path class="cls-3" d="M405.53,5.23h0a20.87,20.87,0,0,0,16,16h0a20.9,20.9,0,0,0-16,16h0a20.87,20.87,0,0,0-16-16h0A20.85,20.85,0,0,0,405.53,5.23Z" transform="translate(-19.65 -5.23)"/></svg>
